<svg viewBox="0 0 165.5 22" width="165.5" height="22" fill="none" xmlns="http://www.w3.org/2000/svg">
  <path d="M 17.658 1 L 4.342 1 C 2.496 1 1 2.496 1 4.342 L 1 17.658 C 1 19.504 2.496 21 4.342 21 L 17.658 21 C 19.504 21 21 19.504 21 17.658 L 21 4.342 C 21 2.496 19.504 1 17.658 1 Z M 17.364 16.309 C 17.364 16.892 16.892 17.364 16.309 17.364 L 5.69 17.364 C 5.108 17.363 4.636 16.891 4.635 16.309 L 4.635 5.69 C 4.635 5.107 5.107 4.635 5.69 4.635 L 16.31 4.635 C 16.893 4.635 17.365 5.107 17.365 5.69 L 17.365 16.31 L 17.364 16.309 Z M 8.88 13.715 C 8.544 13.716 8.272 13.443 8.274 13.107 L 8.274 8.868 C 8.274 8.533 8.544 8.259 8.88 8.259 L 13.125 8.259 C 13.458 8.259 13.73 8.531 13.73 8.869 L 13.73 13.105 C 13.731 13.44 13.46 13.712 13.125 13.713 L 8.878 13.713 L 8.878 13.715 L 8.88 13.715 Z M 26.304 13.425 L 28.487 13.425 C 28.596 14.662 29.434 15.627 31.126 15.627 C 32.636 15.627 33.565 14.881 33.565 13.753 C 33.565 12.697 32.837 12.225 31.525 11.915 L 29.833 11.551 C 27.995 11.151 26.611 9.968 26.611 8.038 C 26.611 5.908 28.504 4.453 30.961 4.453 C 33.563 4.453 35.238 5.818 35.383 7.837 L 33.27 7.837 C 33.019 6.892 32.235 6.329 30.962 6.329 C 29.614 6.329 28.688 7.057 28.688 7.986 C 28.688 8.915 29.488 9.478 30.871 9.787 L 32.546 10.151 C 34.384 10.551 35.639 11.661 35.639 13.608 C 35.639 16.084 33.783 17.558 31.127 17.558 C 28.141 17.555 26.486 15.937 26.303 13.425 L 26.304 13.425 Z M 43.45 21 L 43.45 17.378 L 43.593 15.79 L 43.45 15.79 C 42.95 16.932 41.898 17.557 40.47 17.557 C 38.168 17.557 36.455 15.683 36.455 12.81 C 36.455 9.936 38.168 8.062 40.47 8.062 C 41.88 8.062 42.88 8.722 43.45 9.757 L 43.593 9.757 L 43.593 8.24 L 45.485 8.24 L 45.485 21 L 43.45 21 Z M 43.52 12.808 C 43.52 10.97 42.397 9.898 41.021 9.898 C 39.646 9.898 38.521 10.97 38.521 12.808 C 38.521 14.646 39.646 15.718 41.021 15.718 C 42.397 15.718 43.521 14.648 43.521 12.808 L 43.52 12.808 Z M 46.995 13.755 L 46.995 8.239 L 49.03 8.239 L 49.03 13.576 C 49.03 15.022 49.726 15.717 50.886 15.717 C 52.314 15.717 53.243 14.7 53.243 13.111 L 53.243 8.24 L 55.278 8.24 L 55.278 17.377 L 53.386 17.377 L 53.386 15.485 L 53.243 15.485 C 52.797 16.7 51.815 17.556 50.299 17.556 C 48.119 17.556 46.995 16.165 46.995 13.756 L 46.995 13.755 Z M 56.517 14.825 C 56.517 13.111 57.713 12.112 59.837 11.987 L 62.352 11.827 L 62.352 11.113 C 62.352 10.256 61.727 9.739 60.621 9.739 C 59.604 9.739 58.996 10.256 58.835 10.988 L 56.8 10.988 C 57.015 9.132 58.55 8.06 60.619 8.06 C 62.958 8.06 64.385 9.06 64.385 10.988 L 64.385 17.376 L 62.493 17.376 L 62.493 15.681 L 62.35 15.681 C 61.922 16.805 61.03 17.555 59.316 17.555 C 57.677 17.555 56.516 16.449 56.516 14.825 L 56.517 14.825 Z M 62.354 13.701 L 62.354 13.218 L 60.301 13.361 C 59.195 13.431 58.695 13.843 58.695 14.664 C 58.695 15.36 59.265 15.86 60.068 15.86 C 61.516 15.86 62.354 14.933 62.354 13.7 L 62.354 13.701 Z M 65.904 17.378 L 65.904 8.24 L 67.796 8.24 L 67.796 9.99 L 67.938 9.99 C 68.206 8.793 69.117 8.24 70.472 8.24 L 71.402 8.24 L 71.402 10.078 L 70.241 10.078 C 68.92 10.078 67.938 10.935 67.938 12.559 L 67.938 17.377 L 65.904 17.377 L 65.904 17.379 L 65.904 17.378 Z M 80.712 13.184 L 73.768 13.184 C 73.874 14.861 75.053 15.808 76.356 15.808 C 77.462 15.808 78.158 15.362 78.552 14.611 L 80.569 14.611 C 80.016 16.467 78.391 17.555 76.338 17.555 C 73.643 17.555 71.751 15.539 71.751 12.808 C 71.751 10.077 73.696 8.06 76.356 8.06 C 79.032 8.06 80.782 9.898 80.782 12.182 C 80.784 12.631 80.748 12.862 80.712 13.184 Z M 78.767 11.774 C 78.697 10.507 77.643 9.651 76.357 9.651 C 75.143 9.651 74.127 10.419 73.877 11.774 L 78.767 11.774 Z" fill="#1A1A1A"/>
  <g id="svgGroup" stroke-linecap="round" fill-rule="evenodd" font-size="9pt" stroke="#000" stroke-width="0.25mm" fill="black" style="stroke:#000;stroke-width:0.25mm;fill:black" transform="matrix(0.174779, 0, 0, 0.174779, 85.158545, 5.2)">
    <path d="M 196.1 71.4 L 208.2 71.4 L 208.2 39.3 Q 208.2 34.2 207.55 31.1 A 15.394 15.394 0 0 0 206.627 28.142 A 12.196 12.196 0 0 0 205.3 25.8 A 12.482 12.482 0 0 0 201.777 22.333 A 16.52 16.52 0 0 0 199.45 21.05 A 19.798 19.798 0 0 0 191.66 19.307 A 22.837 22.837 0 0 0 191.1 19.3 A 22.584 22.584 0 0 0 186.306 19.79 A 18.703 18.703 0 0 0 182.95 20.85 A 21.576 21.576 0 0 0 178.891 23.147 A 29.073 29.073 0 0 0 175.8 25.7 L 175.8 0 L 163.7 0 L 163.7 71.4 L 175.8 71.4 L 175.8 46.1 Q 175.8 41.016 177.32 37.478 A 13.192 13.192 0 0 1 178.85 34.8 Q 181.9 30.7 187.4 30.7 A 11.822 11.822 0 0 1 189.919 30.951 Q 191.47 31.289 192.615 32.085 A 6.309 6.309 0 0 1 194 33.4 A 8.133 8.133 0 0 1 195.217 35.706 Q 195.981 37.872 196.084 41.077 A 31.882 31.882 0 0 1 196.1 42.1 L 196.1 71.4 Z M 148.8 36.1 L 157.2 28 A 36.04 36.04 0 0 0 152.733 23.946 A 26.452 26.452 0 0 0 147.35 20.75 A 26.263 26.263 0 0 0 140.844 18.9 A 35.426 35.426 0 0 0 135.4 18.5 A 29.806 29.806 0 0 0 129.642 19.038 A 25.634 25.634 0 0 0 126.85 19.75 Q 122.9 21 120.05 23.25 Q 117.2 25.5 115.55 28.55 Q 113.9 31.6 113.9 35.2 A 13.076 13.076 0 0 0 120.604 46.86 Q 124.763 49.46 131.5 50.8 L 138.6 52.2 A 41.664 41.664 0 0 1 140.381 52.603 Q 142.847 53.223 143.9 53.9 A 2.937 2.937 0 0 1 145.255 56.049 A 4.496 4.496 0 0 1 145.3 56.7 A 5.125 5.125 0 0 1 143.416 60.718 A 7.912 7.912 0 0 1 142.5 61.4 A 10.322 10.322 0 0 1 139.601 62.654 Q 137.589 63.2 135 63.2 A 21.704 21.704 0 0 1 131.069 62.86 A 16.523 16.523 0 0 1 127.4 61.75 Q 124.1 60.3 120.9 56.9 L 111.8 64.1 A 27.633 27.633 0 0 0 120.635 70.384 A 32.618 32.618 0 0 0 122.2 71.05 A 35.137 35.137 0 0 0 131.784 73.306 A 42.803 42.803 0 0 0 135.9 73.5 A 33.609 33.609 0 0 0 141.555 73.042 A 27.764 27.764 0 0 0 145.1 72.2 A 26.262 26.262 0 0 0 149.589 70.363 A 21.637 21.637 0 0 0 152.4 68.6 Q 155.5 66.3 157.2 63.1 Q 158.9 59.9 158.9 56.1 A 16.137 16.137 0 0 0 158.415 52.031 A 11.424 11.424 0 0 0 155.3 46.6 Q 151.7 43.1 144 41.4 L 135.7 39.7 Q 133.004 39.101 131.205 38.552 A 32.804 32.804 0 0 1 131.2 38.55 A 17.811 17.811 0 0 1 130.153 38.196 Q 129.088 37.797 128.4 37.35 Q 127.4 36.7 127 35.9 Q 126.6 35.1 126.6 33.9 Q 126.6 31.45 128.576 29.988 A 6.543 6.543 0 0 1 129 29.7 Q 130.829 28.557 133.702 28.285 A 20.16 20.16 0 0 1 135.6 28.2 A 16.634 16.634 0 0 1 141.136 29.071 Q 145.66 30.659 148.279 35.142 A 18.196 18.196 0 0 1 148.8 36.1 Z M 96.6 71.4 L 110.5 71.4 Q 109.2 69.4 108.7 67.95 A 9.174 9.174 0 0 1 108.381 66.743 Q 108.258 66.121 108.185 65.394 A 20.872 20.872 0 0 1 108.1 64.2 L 108.1 61.1 L 108.1 34.8 A 31.523 31.523 0 0 0 107.987 32.041 Q 107.871 30.727 107.637 29.617 A 12.943 12.943 0 0 0 107.05 27.6 A 10.75 10.75 0 0 0 103.749 23.12 A 12.682 12.682 0 0 0 103.6 23 Q 100.881 21.031 96.844 19.897 A 31.073 31.073 0 0 0 96.3 19.75 Q 91.9 18.6 86.4 18.6 A 43.294 43.294 0 0 0 80.527 18.971 Q 77.634 19.369 75.272 20.191 A 17.396 17.396 0 0 0 70.6 22.6 A 15.153 15.153 0 0 0 65.33 29.871 A 22.765 22.765 0 0 0 64.2 34.8 L 76.6 35.6 Q 76.823 32.631 78.23 30.847 A 6.107 6.107 0 0 1 79.35 29.75 A 7.689 7.689 0 0 1 81.533 28.632 Q 83.693 27.9 86.9 27.9 Q 89.936 27.9 92.024 28.822 A 7.585 7.585 0 0 1 93.6 29.75 Q 96 31.6 96 34.9 L 96 36.6 A 38.267 38.267 0 0 1 94.378 37.294 A 34.306 34.306 0 0 1 93.85 37.5 A 17.769 17.769 0 0 1 92.992 37.8 Q 92.219 38.05 91.25 38.3 A 53.706 53.706 0 0 1 90.422 38.506 Q 89.188 38.804 87.537 39.15 A 155.142 155.142 0 0 1 87.3 39.2 Q 84.9 39.7 81.2 40.4 Q 79.056 40.783 77.411 41.136 A 64.924 64.924 0 0 0 76.45 41.35 A 91.202 91.202 0 0 0 75.065 41.68 Q 73.975 41.95 73.1 42.2 A 25.332 25.332 0 0 0 71.942 42.56 Q 71.372 42.752 70.875 42.956 A 14.803 14.803 0 0 0 70.65 43.05 Q 69.6 43.5 68.6 44.1 A 12.8 12.8 0 0 0 64.271 48.434 A 15.547 15.547 0 0 0 63.8 49.25 Q 62 52.6 62 56.6 A 17.504 17.504 0 0 0 62.451 60.644 A 14.725 14.725 0 0 0 63.35 63.3 Q 64.7 66.3 67.1 68.45 Q 69.5 70.6 72.9 71.75 Q 76.3 72.9 80.5 72.9 A 26.808 26.808 0 0 0 85.1 72.52 A 21.814 21.814 0 0 0 88.35 71.7 Q 91.9 70.5 95.8 67.7 Q 95.965 68.689 96.096 69.304 A 14.619 14.619 0 0 0 96.15 69.55 Q 96.3 70.2 96.6 71.4 Z M 356.8 71.4 L 370.7 71.4 Q 369.4 69.4 368.9 67.95 A 9.174 9.174 0 0 1 368.581 66.743 Q 368.458 66.121 368.385 65.394 A 20.872 20.872 0 0 1 368.3 64.2 L 368.3 61.1 L 368.3 34.8 A 31.523 31.523 0 0 0 368.187 32.041 Q 368.071 30.727 367.837 29.617 A 12.943 12.943 0 0 0 367.25 27.6 A 10.75 10.75 0 0 0 363.949 23.12 A 12.682 12.682 0 0 0 363.8 23 Q 361.081 21.031 357.044 19.897 A 31.073 31.073 0 0 0 356.5 19.75 Q 352.1 18.6 346.6 18.6 A 43.294 43.294 0 0 0 340.727 18.971 Q 337.834 19.369 335.472 20.191 A 17.396 17.396 0 0 0 330.8 22.6 A 15.153 15.153 0 0 0 325.53 29.871 A 22.765 22.765 0 0 0 324.4 34.8 L 336.8 35.6 Q 337.023 32.631 338.43 30.847 A 6.107 6.107 0 0 1 339.55 29.75 A 7.689 7.689 0 0 1 341.733 28.632 Q 343.893 27.9 347.1 27.9 Q 350.136 27.9 352.224 28.822 A 7.585 7.585 0 0 1 353.8 29.75 Q 356.2 31.6 356.2 34.9 L 356.2 36.6 A 38.267 38.267 0 0 1 354.578 37.294 A 34.306 34.306 0 0 1 354.05 37.5 A 17.769 17.769 0 0 1 353.192 37.8 Q 352.419 38.05 351.45 38.3 A 53.706 53.706 0 0 1 350.622 38.506 Q 349.388 38.804 347.737 39.15 A 155.142 155.142 0 0 1 347.5 39.2 Q 345.1 39.7 341.4 40.4 Q 339.256 40.783 337.611 41.136 A 64.924 64.924 0 0 0 336.65 41.35 A 91.202 91.202 0 0 0 335.265 41.68 Q 334.175 41.95 333.3 42.2 A 25.332 25.332 0 0 0 332.142 42.56 Q 331.572 42.752 331.075 42.956 A 14.803 14.803 0 0 0 330.85 43.05 Q 329.8 43.5 328.8 44.1 A 12.8 12.8 0 0 0 324.471 48.434 A 15.547 15.547 0 0 0 324 49.25 Q 322.2 52.6 322.2 56.6 A 17.504 17.504 0 0 0 322.651 60.644 A 14.725 14.725 0 0 0 323.55 63.3 Q 324.9 66.3 327.3 68.45 Q 329.7 70.6 333.1 71.75 Q 336.5 72.9 340.7 72.9 A 26.808 26.808 0 0 0 345.3 72.52 A 21.814 21.814 0 0 0 348.55 71.7 Q 352.1 70.5 356 67.7 Q 356.165 68.689 356.296 69.304 A 14.619 14.619 0 0 0 356.35 69.55 Q 356.5 70.2 356.8 71.4 Z M 452 0 L 439.9 0 L 439.9 24.8 A 27.524 27.524 0 0 0 437.3 22.424 Q 435.875 21.289 434.45 20.521 A 15.401 15.401 0 0 0 433.5 20.05 Q 430.3 18.6 426.3 18.6 A 20.763 20.763 0 0 0 419.25 19.781 A 19.494 19.494 0 0 0 417.1 20.7 Q 412.9 22.8 409.75 26.55 A 26.844 26.844 0 0 0 405.555 33.502 A 31.42 31.42 0 0 0 404.85 35.35 A 32.091 32.091 0 0 0 403.19 43.67 A 37.942 37.942 0 0 0 403.1 46.3 A 31.665 31.665 0 0 0 404.004 53.963 A 28.362 28.362 0 0 0 404.85 56.75 A 27.25 27.25 0 0 0 407.873 62.773 A 24.115 24.115 0 0 0 409.7 65.15 Q 412.8 68.7 417.05 70.75 Q 421.3 72.8 426.2 72.8 A 20.144 20.144 0 0 0 429.93 72.471 A 14.956 14.956 0 0 0 433.7 71.25 Q 436.591 69.85 439.318 66.859 A 28.668 28.668 0 0 0 439.9 66.2 L 439.9 71.4 L 452 71.4 L 452 0 Z M 227.4 24.8 L 227.4 0 L 215.3 0 L 215.3 71.4 L 227.4 71.4 L 227.4 66.5 Q 229.913 69.17 232.363 70.637 A 14.863 14.863 0 0 0 233.7 71.35 A 14.778 14.778 0 0 0 237.332 72.481 Q 238.961 72.778 240.818 72.798 A 25.153 25.153 0 0 0 241.1 72.8 Q 246 72.8 250.25 70.8 Q 254.5 68.8 257.6 65.25 A 25.381 25.381 0 0 0 261.746 58.623 A 29.846 29.846 0 0 0 262.45 56.85 A 29.792 29.792 0 0 0 264.11 48.839 A 35.357 35.357 0 0 0 264.2 46.3 A 35.029 35.029 0 0 0 263.446 38.922 A 30.434 30.434 0 0 0 262.45 35.35 A 28.745 28.745 0 0 0 259.382 29.021 A 25.532 25.532 0 0 0 257.55 26.55 Q 254.4 22.8 250.15 20.7 Q 245.9 18.6 241 18.6 Q 237 18.6 233.85 20.05 Q 231.198 21.271 228.44 23.802 A 33.714 33.714 0 0 0 227.4 24.8 Z M 0 0 L 0 71.4 L 21.9 71.4 A 69.257 69.257 0 0 0 30.364 70.917 Q 39.999 69.728 45.69 65.604 A 20.833 20.833 0 0 0 46.1 65.3 Q 52.3 60.7 55.4 53.35 A 38.167 38.167 0 0 0 57.864 44.578 A 52.515 52.515 0 0 0 58.5 36.2 A 52.234 52.234 0 0 0 57.382 25.036 Q 55.824 17.92 52.098 12.635 A 29.382 29.382 0 0 0 47.6 7.6 A 28.437 28.437 0 0 0 43.73 4.617 A 25.609 25.609 0 0 0 42.8 4.05 Q 40.3 2.6 37.25 1.7 A 34.415 34.415 0 0 0 33.597 0.846 A 44.492 44.492 0 0 0 30.45 0.4 Q 26.949 0.027 22.533 0.002 A 112.703 112.703 0 0 0 21.9 0 L 0 0 Z M 293.3 18.5 A 28.321 28.321 0 0 0 286.546 19.281 A 24.552 24.552 0 0 0 282.85 20.5 Q 278.1 22.5 274.75 26.15 Q 271.4 29.8 269.5 34.85 A 29.737 29.737 0 0 0 267.767 42.471 A 36.381 36.381 0 0 0 267.6 46 A 34.016 34.016 0 0 0 268.269 52.871 A 28.389 28.389 0 0 0 269.5 57.15 A 27.631 27.631 0 0 0 272.798 63.432 A 24.653 24.653 0 0 0 274.75 65.85 Q 278.1 69.5 282.85 71.5 A 25.75 25.75 0 0 0 290.852 73.404 A 30.826 30.826 0 0 0 293.3 73.5 A 28.321 28.321 0 0 0 300.054 72.719 A 24.552 24.552 0 0 0 303.75 71.5 Q 308.5 69.5 311.85 65.85 Q 315.2 62.2 317.1 57.15 A 29.737 29.737 0 0 0 318.833 49.529 A 36.381 36.381 0 0 0 319 46 A 34.016 34.016 0 0 0 318.331 39.129 A 28.389 28.389 0 0 0 317.1 34.85 A 27.631 27.631 0 0 0 313.802 28.568 A 24.653 24.653 0 0 0 311.85 26.15 Q 308.5 22.5 303.75 20.5 A 25.75 25.75 0 0 0 295.748 18.596 A 30.826 30.826 0 0 0 293.3 18.5 Z M 375.3 71.4 L 387.4 71.4 L 387.4 49.8 Q 387.4 41.128 390.818 36.966 A 10.443 10.443 0 0 1 391 36.75 Q 394.001 33.291 399.919 32.715 A 25.636 25.636 0 0 1 402.4 32.6 L 402.6 32.6 L 402.8 32.6 L 403.5 32.6 L 403.5 19.6 L 401.9 19.6 A 20.955 20.955 0 0 0 398.179 19.913 Q 396.037 20.299 394.285 21.164 A 12.473 12.473 0 0 0 393.65 21.5 A 14.742 14.742 0 0 0 390.706 23.735 Q 388.986 25.394 387.4 27.8 L 387.4 20.7 L 375.3 20.7 L 375.3 71.4 Z M 20.7 59.6 L 13.2 59.6 L 13.2 11.8 L 20.7 11.8 A 51.633 51.633 0 0 1 25.165 11.983 Q 27.464 12.183 29.452 12.601 A 26.863 26.863 0 0 1 31.45 13.1 Q 35.9 14.4 38.75 17.25 A 15.534 15.534 0 0 1 41.908 21.886 A 20.134 20.134 0 0 1 42.9 24.6 A 30.495 30.495 0 0 1 43.789 28.882 Q 44.091 31.066 44.171 33.558 A 57.253 57.253 0 0 1 44.2 35.4 A 73.659 73.659 0 0 1 44.052 40.224 Q 43.796 44.107 43.1 47.05 A 19.211 19.211 0 0 1 41.887 50.644 A 13.762 13.762 0 0 1 39.3 54.5 A 13.346 13.346 0 0 1 35.217 57.349 A 18.295 18.295 0 0 1 32.05 58.45 A 33.095 33.095 0 0 1 28.321 59.151 Q 24.95 59.6 20.7 59.6 Z M 297.513 30.53 A 13.42 13.42 0 0 0 293.3 29.9 A 15.623 15.623 0 0 0 292.018 29.951 A 11.048 11.048 0 0 0 283.9 34.2 A 13.566 13.566 0 0 0 282.365 36.646 Q 281.346 38.722 280.884 41.322 A 26.758 26.758 0 0 0 280.5 46 A 29.945 29.945 0 0 0 280.583 48.27 Q 281.032 54.173 283.9 57.8 A 10.812 10.812 0 0 0 289.087 61.47 A 13.42 13.42 0 0 0 293.3 62.1 A 15.623 15.623 0 0 0 294.582 62.049 A 11.048 11.048 0 0 0 302.7 57.8 A 13.566 13.566 0 0 0 304.235 55.354 Q 305.254 53.278 305.716 50.678 A 26.758 26.758 0 0 0 306.1 46 A 29.945 29.945 0 0 0 306.017 43.73 Q 305.568 37.827 302.7 34.2 A 10.812 10.812 0 0 0 297.513 30.53 Z M 243.161 30.659 A 12.57 12.57 0 0 0 239 30 A 12.969 12.969 0 0 0 237.581 30.076 A 9.979 9.979 0 0 0 230.35 34.3 Q 227.2 38.6 227.2 46.2 Q 227.2 49.327 227.878 51.888 A 14.42 14.42 0 0 0 230.5 57.25 A 10.631 10.631 0 0 0 234.98 60.634 A 11.756 11.756 0 0 0 239.3 61.4 A 13.074 13.074 0 0 0 240.64 61.333 A 10.27 10.27 0 0 0 248.05 57.1 A 13.769 13.769 0 0 0 249.51 54.676 Q 250.48 52.625 250.925 50.072 A 27.281 27.281 0 0 0 251.3 45.4 Q 251.3 38.3 248 34.15 A 10.527 10.527 0 0 0 243.161 30.659 Z M 428.3 30 Q 433.8 30 436.95 34.35 A 15.215 15.215 0 0 1 439.211 39.12 Q 440.1 42.216 440.1 46.2 Q 440.1 51.549 438.231 55.205 A 13.044 13.044 0 0 1 436.9 57.3 A 10.254 10.254 0 0 1 429.417 61.347 A 13.776 13.776 0 0 1 428.2 61.4 A 12.276 12.276 0 0 1 424.121 60.752 A 10.361 10.361 0 0 1 419.25 57.15 A 14.481 14.481 0 0 1 416.917 52.452 Q 416.315 50.439 416.108 48.031 A 30.747 30.747 0 0 1 416 45.4 A 22.847 22.847 0 0 1 416.458 40.69 Q 417.1 37.643 418.641 35.296 A 13.773 13.773 0 0 1 419.4 34.25 A 11.154 11.154 0 0 1 423.465 30.997 Q 425.602 30.016 428.217 30 A 14.165 14.165 0 0 1 428.3 30 Z M 96 45.9 L 96 52.9 A 8.199 8.199 0 0 1 93.272 59.147 A 10.944 10.944 0 0 1 92.5 59.8 Q 89 62.5 83.6 62.5 A 16.672 16.672 0 0 1 81.165 62.334 Q 78.697 61.969 77.15 60.8 A 6.611 6.611 0 0 1 77.115 60.773 Q 74.9 59.077 74.9 56.1 A 5.609 5.609 0 0 1 76.608 51.988 A 7.008 7.008 0 0 1 76.75 51.85 A 8.504 8.504 0 0 1 78.96 50.364 Q 80.248 49.75 81.9 49.4 L 89.8 47.8 Q 94.1 46.8 96 45.9 Z M 356.2 45.9 L 356.2 52.9 A 8.199 8.199 0 0 1 353.472 59.147 A 10.944 10.944 0 0 1 352.7 59.8 Q 349.2 62.5 343.8 62.5 A 16.672 16.672 0 0 1 341.365 62.334 Q 338.897 61.969 337.35 60.8 A 6.611 6.611 0 0 1 337.315 60.773 Q 335.1 59.077 335.1 56.1 A 5.609 5.609 0 0 1 336.808 51.988 A 7.008 7.008 0 0 1 336.95 51.85 A 8.504 8.504 0 0 1 339.16 50.364 Q 340.448 49.75 342.1 49.4 L 350 47.8 Q 354.3 46.8 356.2 45.9 Z" vector-effect="non-scaling-stroke" style="paint-order: stroke; fill: rgb(115, 115, 115); stroke: rgb(63, 49, 49); stroke-opacity: 0;"/>
  </g>
</svg>